<?xml version="1.0" encoding="UTF-8" standalone="no"?>
<!DOCTYPE svg PUBLIC "-//W3C//DTD SVG 1.1//EN"
 "http://www.w3.org/Graphics/SVG/1.1/DTD/svg11.dtd">
<!-- Generated by graphviz version 2.43.0 (0)
 -->
<!-- Title: Tree Pages: 1 -->
<svg width="1087pt" height="909pt"
 viewBox="0.00 0.00 1087.00 909.00" xmlns="http://www.w3.org/2000/svg" xmlns:xlink="http://www.w3.org/1999/xlink">
<g id="graph0" class="graph" transform="scale(1 1) rotate(0) translate(4 905)">
<title>Tree</title>
<polygon fill="white" stroke="transparent" points="-4,4 -4,-905 1083,-905 1083,4 -4,4"/>
<!-- 0 -->
<g id="node1" class="node">
<title>0</title>
<path fill="#fdf4ee" stroke="black" d="M648.5,-901C648.5,-901 505.5,-901 505.5,-901 499.5,-901 493.5,-895 493.5,-889 493.5,-889 493.5,-830 493.5,-830 493.5,-824 499.5,-818 505.5,-818 505.5,-818 648.5,-818 648.5,-818 654.5,-818 660.5,-824 660.5,-830 660.5,-830 660.5,-889 660.5,-889 660.5,-895 654.5,-901 648.5,-901"/>
<text text-anchor="start" x="531.5" y="-885.8" font-family="Helvetica,sans-Serif" font-size="14.00">odor_n ≤ 0.5</text>
<text text-anchor="start" x="533" y="-870.8" font-family="Helvetica,sans-Serif" font-size="14.00">gini = 0.499</text>
<text text-anchor="start" x="519.5" y="-855.8" font-family="Helvetica,sans-Serif" font-size="14.00">samples = 5686</text>
<text text-anchor="start" x="501.5" y="-840.8" font-family="Helvetica,sans-Serif" font-size="14.00">value = [2972, 2714]</text>
<text text-anchor="start" x="528" y="-825.8" font-family="Helvetica,sans-Serif" font-size="14.00">class = edible</text>
</g>
<!-- 1 -->
<g id="node2" class="node">
<title>1</title>
<path fill="#62b1ea" stroke="black" d="M539,-782C539,-782 405,-782 405,-782 399,-782 393,-776 393,-770 393,-770 393,-711 393,-711 393,-705 399,-699 405,-699 405,-699 539,-699 539,-699 545,-699 551,-705 551,-711 551,-711 551,-770 551,-770 551,-776 545,-782 539,-782"/>
<text text-anchor="start" x="410" y="-766.8" font-family="Helvetica,sans-Serif" font-size="14.00">stalk&#45;root_c ≤ 0.5</text>
<text text-anchor="start" x="428" y="-751.8" font-family="Helvetica,sans-Serif" font-size="14.00">gini = 0.286</text>
<text text-anchor="start" x="414.5" y="-736.8" font-family="Helvetica,sans-Serif" font-size="14.00">samples = 3190</text>
<text text-anchor="start" x="401" y="-721.8" font-family="Helvetica,sans-Serif" font-size="14.00">value = [551, 2639]</text>
<text text-anchor="start" x="408.5" y="-706.8" font-family="Helvetica,sans-Serif" font-size="14.00">class = poisonous</text>
</g>
<!-- 0&#45;&gt;1 -->
<g id="edge1" class="edge">
<title>0&#45;&gt;1</title>
<path fill="none" stroke="black" d="M540.57,-817.91C532.35,-808.74 523.54,-798.93 515.07,-789.49"/>
<polygon fill="black" stroke="black" points="517.65,-787.13 508.36,-782.02 512.44,-791.8 517.65,-787.13"/>
<text text-anchor="middle" x="507.02" y="-803.28" font-family="Helvetica,sans-Serif" font-size="14.00">True</text>
</g>
<!-- 12 -->
<g id="node13" class="node">
<title>12</title>
<path fill="#e6853f" stroke="black" d="M787,-782C787,-782 623,-782 623,-782 617,-782 611,-776 611,-770 611,-770 611,-711 611,-711 611,-705 617,-699 623,-699 623,-699 787,-699 787,-699 793,-699 799,-705 799,-711 799,-711 799,-770 799,-770 799,-776 793,-782 787,-782"/>
<text text-anchor="start" x="619" y="-766.8" font-family="Helvetica,sans-Serif" font-size="14.00">spore&#45;print&#45;color_r ≤ 0.5</text>
<text text-anchor="start" x="661" y="-751.8" font-family="Helvetica,sans-Serif" font-size="14.00">gini = 0.058</text>
<text text-anchor="start" x="647.5" y="-736.8" font-family="Helvetica,sans-Serif" font-size="14.00">samples = 2496</text>
<text text-anchor="start" x="638.5" y="-721.8" font-family="Helvetica,sans-Serif" font-size="14.00">value = [2421, 75]</text>
<text text-anchor="start" x="656" y="-706.8" font-family="Helvetica,sans-Serif" font-size="14.00">class = edible</text>
</g>
<!-- 0&#45;&gt;12 -->
<g id="edge12" class="edge">
<title>0&#45;&gt;12</title>
<path fill="none" stroke="black" d="M621.41,-817.91C631.64,-808.56 642.6,-798.54 653.11,-788.93"/>
<polygon fill="black" stroke="black" points="655.65,-791.35 660.67,-782.02 650.93,-786.18 655.65,-791.35"/>
<text text-anchor="middle" x="659.55" y="-803.3" font-family="Helvetica,sans-Serif" font-size="14.00">False</text>
</g>
<!-- 2 -->
<g id="node3" class="node">
<title>2</title>
<path fill="#48a5e7" stroke="black" d="M348,-663C348,-663 128,-663 128,-663 122,-663 116,-657 116,-651 116,-651 116,-592 116,-592 116,-586 122,-580 128,-580 128,-580 348,-580 348,-580 354,-580 360,-586 360,-592 360,-592 360,-651 360,-651 360,-657 354,-663 348,-663"/>
<text text-anchor="start" x="124" y="-647.8" font-family="Helvetica,sans-Serif" font-size="14.00">stalk&#45;surface&#45;below&#45;ring_y ≤ 0.5</text>
<text text-anchor="start" x="194" y="-632.8" font-family="Helvetica,sans-Serif" font-size="14.00">gini = 0.134</text>
<text text-anchor="start" x="180.5" y="-617.8" font-family="Helvetica,sans-Serif" font-size="14.00">samples = 2817</text>
<text text-anchor="start" x="167" y="-602.8" font-family="Helvetica,sans-Serif" font-size="14.00">value = [204, 2613]</text>
<text text-anchor="start" x="174.5" y="-587.8" font-family="Helvetica,sans-Serif" font-size="14.00">class = poisonous</text>
</g>
<!-- 1&#45;&gt;2 -->
<g id="edge2" class="edge">
<title>1&#45;&gt;2</title>
<path fill="none" stroke="black" d="M392.78,-699.89C372.01,-689.51 349.47,-678.23 328.17,-667.59"/>
<polygon fill="black" stroke="black" points="329.64,-664.41 319.13,-663.07 326.51,-670.67 329.64,-664.41"/>
</g>
<!-- 9 -->
<g id="node10" class="node">
<title>9</title>
<path fill="#e78a48" stroke="black" d="M530,-663C530,-663 414,-663 414,-663 408,-663 402,-657 402,-651 402,-651 402,-592 402,-592 402,-586 408,-580 414,-580 414,-580 530,-580 530,-580 536,-580 542,-586 542,-592 542,-592 542,-651 542,-651 542,-657 536,-663 530,-663"/>
<text text-anchor="start" x="410" y="-647.8" font-family="Helvetica,sans-Serif" font-size="14.00">ring&#45;type_p ≤ 0.5</text>
<text text-anchor="start" x="432.5" y="-632.8" font-family="Helvetica,sans-Serif" font-size="14.00">gini = 0.13</text>
<text text-anchor="start" x="419" y="-617.8" font-family="Helvetica,sans-Serif" font-size="14.00">samples = 373</text>
<text text-anchor="start" x="410" y="-602.8" font-family="Helvetica,sans-Serif" font-size="14.00">value = [347, 26]</text>
<text text-anchor="start" x="423" y="-587.8" font-family="Helvetica,sans-Serif" font-size="14.00">class = edible</text>
</g>
<!-- 1&#45;&gt;9 -->
<g id="edge9" class="edge">
<title>1&#45;&gt;9</title>
<path fill="none" stroke="black" d="M472,-698.91C472,-690.65 472,-681.86 472,-673.3"/>
<polygon fill="black" stroke="black" points="475.5,-673.02 472,-663.02 468.5,-673.02 475.5,-673.02"/>
</g>
<!-- 3 -->
<g id="node4" class="node">
<title>3</title>
<path fill="#3fa0e6" stroke="black" d="M142,-544C142,-544 12,-544 12,-544 6,-544 0,-538 0,-532 0,-532 0,-473 0,-473 0,-467 6,-461 12,-461 12,-461 142,-461 142,-461 148,-461 154,-467 154,-473 154,-473 154,-532 154,-532 154,-538 148,-544 142,-544"/>
<text text-anchor="start" x="8" y="-528.8" font-family="Helvetica,sans-Serif" font-size="14.00">gill&#45;spacing_c ≤ 0.5</text>
<text text-anchor="start" x="33" y="-513.8" font-family="Helvetica,sans-Serif" font-size="14.00">gini = 0.055</text>
<text text-anchor="start" x="19.5" y="-498.8" font-family="Helvetica,sans-Serif" font-size="14.00">samples = 2689</text>
<text text-anchor="start" x="10.5" y="-483.8" font-family="Helvetica,sans-Serif" font-size="14.00">value = [76, 2613]</text>
<text text-anchor="start" x="13.5" y="-468.8" font-family="Helvetica,sans-Serif" font-size="14.00">class = poisonous</text>
</g>
<!-- 2&#45;&gt;3 -->
<g id="edge3" class="edge">
<title>2&#45;&gt;3</title>
<path fill="none" stroke="black" d="M182.14,-579.91C168.9,-570.29 154.68,-559.95 141.11,-550.09"/>
<polygon fill="black" stroke="black" points="142.91,-547.07 132.76,-544.02 138.79,-552.73 142.91,-547.07"/>
</g>
<!-- 8 -->
<g id="node9" class="node">
<title>8</title>
<path fill="#e58139" stroke="black" d="M291.5,-536.5C291.5,-536.5 184.5,-536.5 184.5,-536.5 178.5,-536.5 172.5,-530.5 172.5,-524.5 172.5,-524.5 172.5,-480.5 172.5,-480.5 172.5,-474.5 178.5,-468.5 184.5,-468.5 184.5,-468.5 291.5,-468.5 291.5,-468.5 297.5,-468.5 303.5,-474.5 303.5,-480.5 303.5,-480.5 303.5,-524.5 303.5,-524.5 303.5,-530.5 297.5,-536.5 291.5,-536.5"/>
<text text-anchor="start" x="203" y="-521.3" font-family="Helvetica,sans-Serif" font-size="14.00">gini = 0.0</text>
<text text-anchor="start" x="185" y="-506.3" font-family="Helvetica,sans-Serif" font-size="14.00">samples = 128</text>
<text text-anchor="start" x="180.5" y="-491.3" font-family="Helvetica,sans-Serif" font-size="14.00">value = [128, 0]</text>
<text text-anchor="start" x="189" y="-476.3" font-family="Helvetica,sans-Serif" font-size="14.00">class = edible</text>
</g>
<!-- 2&#45;&gt;8 -->
<g id="edge8" class="edge">
<title>2&#45;&gt;8</title>
<path fill="none" stroke="black" d="M238,-579.91C238,-569.2 238,-557.62 238,-546.78"/>
<polygon fill="black" stroke="black" points="241.5,-546.67 238,-536.67 234.5,-546.67 241.5,-546.67"/>
</g>
<!-- 4 -->
<g id="node5" class="node">
<title>4</title>
<path fill="#fae8db" stroke="black" d="M130.5,-425C130.5,-425 23.5,-425 23.5,-425 17.5,-425 11.5,-419 11.5,-413 11.5,-413 11.5,-354 11.5,-354 11.5,-348 17.5,-342 23.5,-342 23.5,-342 130.5,-342 130.5,-342 136.5,-342 142.5,-348 142.5,-354 142.5,-354 142.5,-413 142.5,-413 142.5,-419 136.5,-425 130.5,-425"/>
<text text-anchor="start" x="19.5" y="-409.8" font-family="Helvetica,sans-Serif" font-size="14.00">bruises?_t ≤ 0.5</text>
<text text-anchor="start" x="33" y="-394.8" font-family="Helvetica,sans-Serif" font-size="14.00">gini = 0.495</text>
<text text-anchor="start" x="24" y="-379.8" font-family="Helvetica,sans-Serif" font-size="14.00">samples = 138</text>
<text text-anchor="start" x="19.5" y="-364.8" font-family="Helvetica,sans-Serif" font-size="14.00">value = [76, 62]</text>
<text text-anchor="start" x="28" y="-349.8" font-family="Helvetica,sans-Serif" font-size="14.00">class = edible</text>
</g>
<!-- 3&#45;&gt;4 -->
<g id="edge4" class="edge">
<title>3&#45;&gt;4</title>
<path fill="none" stroke="black" d="M77,-460.91C77,-452.65 77,-443.86 77,-435.3"/>
<polygon fill="black" stroke="black" points="80.5,-435.02 77,-425.02 73.5,-435.02 80.5,-435.02"/>
</g>
<!-- 7 -->
<g id="node8" class="node">
<title>7</title>
<path fill="#399de5" stroke="black" d="M291.5,-417.5C291.5,-417.5 172.5,-417.5 172.5,-417.5 166.5,-417.5 160.5,-411.5 160.5,-405.5 160.5,-405.5 160.5,-361.5 160.5,-361.5 160.5,-355.5 166.5,-349.5 172.5,-349.5 172.5,-349.5 291.5,-349.5 291.5,-349.5 297.5,-349.5 303.5,-355.5 303.5,-361.5 303.5,-361.5 303.5,-405.5 303.5,-405.5 303.5,-411.5 297.5,-417.5 291.5,-417.5"/>
<text text-anchor="start" x="197" y="-402.3" font-family="Helvetica,sans-Serif" font-size="14.00">gini = 0.0</text>
<text text-anchor="start" x="174.5" y="-387.3" font-family="Helvetica,sans-Serif" font-size="14.00">samples = 2551</text>
<text text-anchor="start" x="170" y="-372.3" font-family="Helvetica,sans-Serif" font-size="14.00">value = [0, 2551]</text>
<text text-anchor="start" x="168.5" y="-357.3" font-family="Helvetica,sans-Serif" font-size="14.00">class = poisonous</text>
</g>
<!-- 3&#45;&gt;7 -->
<g id="edge7" class="edge">
<title>3&#45;&gt;7</title>
<path fill="none" stroke="black" d="M130.78,-460.91C146.71,-448.88 164.13,-435.73 179.95,-423.79"/>
<polygon fill="black" stroke="black" points="182.19,-426.49 188.06,-417.67 177.97,-420.9 182.19,-426.49"/>
</g>
<!-- 5 -->
<g id="node6" class="node">
<title>5</title>
<path fill="#399de5" stroke="black" d="M136.5,-298.5C136.5,-298.5 17.5,-298.5 17.5,-298.5 11.5,-298.5 5.5,-292.5 5.5,-286.5 5.5,-286.5 5.5,-242.5 5.5,-242.5 5.5,-236.5 11.5,-230.5 17.5,-230.5 17.5,-230.5 136.5,-230.5 136.5,-230.5 142.5,-230.5 148.5,-236.5 148.5,-242.5 148.5,-242.5 148.5,-286.5 148.5,-286.5 148.5,-292.5 142.5,-298.5 136.5,-298.5"/>
<text text-anchor="start" x="42" y="-283.3" font-family="Helvetica,sans-Serif" font-size="14.00">gini = 0.0</text>
<text text-anchor="start" x="28.5" y="-268.3" font-family="Helvetica,sans-Serif" font-size="14.00">samples = 62</text>
<text text-anchor="start" x="24" y="-253.3" font-family="Helvetica,sans-Serif" font-size="14.00">value = [0, 62]</text>
<text text-anchor="start" x="13.5" y="-238.3" font-family="Helvetica,sans-Serif" font-size="14.00">class = poisonous</text>
</g>
<!-- 4&#45;&gt;5 -->
<g id="edge5" class="edge">
<title>4&#45;&gt;5</title>
<path fill="none" stroke="black" d="M77,-341.91C77,-331.2 77,-319.62 77,-308.78"/>
<polygon fill="black" stroke="black" points="80.5,-308.67 77,-298.67 73.5,-308.67 80.5,-308.67"/>
</g>
<!-- 6 -->
<g id="node7" class="node">
<title>6</title>
<path fill="#e58139" stroke="black" d="M277,-298.5C277,-298.5 179,-298.5 179,-298.5 173,-298.5 167,-292.5 167,-286.5 167,-286.5 167,-242.5 167,-242.5 167,-236.5 173,-230.5 179,-230.5 179,-230.5 277,-230.5 277,-230.5 283,-230.5 289,-236.5 289,-242.5 289,-242.5 289,-286.5 289,-286.5 289,-292.5 283,-298.5 277,-298.5"/>
<text text-anchor="start" x="193" y="-283.3" font-family="Helvetica,sans-Serif" font-size="14.00">gini = 0.0</text>
<text text-anchor="start" x="179.5" y="-268.3" font-family="Helvetica,sans-Serif" font-size="14.00">samples = 76</text>
<text text-anchor="start" x="175" y="-253.3" font-family="Helvetica,sans-Serif" font-size="14.00">value = [76, 0]</text>
<text text-anchor="start" x="179" y="-238.3" font-family="Helvetica,sans-Serif" font-size="14.00">class = edible</text>
</g>
<!-- 4&#45;&gt;6 -->
<g id="edge6" class="edge">
<title>4&#45;&gt;6</title>
<path fill="none" stroke="black" d="M129.39,-341.91C144.77,-329.99 161.57,-316.98 176.87,-305.12"/>
<polygon fill="black" stroke="black" points="179.43,-307.56 185.19,-298.67 175.15,-302.03 179.43,-307.56"/>
</g>
<!-- 10 -->
<g id="node11" class="node">
<title>10</title>
<path fill="#399de5" stroke="black" d="M452.5,-536.5C452.5,-536.5 333.5,-536.5 333.5,-536.5 327.5,-536.5 321.5,-530.5 321.5,-524.5 321.5,-524.5 321.5,-480.5 321.5,-480.5 321.5,-474.5 327.5,-468.5 333.5,-468.5 333.5,-468.5 452.5,-468.5 452.5,-468.5 458.5,-468.5 464.5,-474.5 464.5,-480.5 464.5,-480.5 464.5,-524.5 464.5,-524.5 464.5,-530.5 458.5,-536.5 452.5,-536.5"/>
<text text-anchor="start" x="358" y="-521.3" font-family="Helvetica,sans-Serif" font-size="14.00">gini = 0.0</text>
<text text-anchor="start" x="344.5" y="-506.3" font-family="Helvetica,sans-Serif" font-size="14.00">samples = 26</text>
<text text-anchor="start" x="340" y="-491.3" font-family="Helvetica,sans-Serif" font-size="14.00">value = [0, 26]</text>
<text text-anchor="start" x="329.5" y="-476.3" font-family="Helvetica,sans-Serif" font-size="14.00">class = poisonous</text>
</g>
<!-- 9&#45;&gt;10 -->
<g id="edge10" class="edge">
<title>9&#45;&gt;10</title>
<path fill="none" stroke="black" d="M444.59,-579.91C436.99,-568.65 428.73,-556.42 421.09,-545.11"/>
<polygon fill="black" stroke="black" points="423.89,-543 415.39,-536.67 418.09,-546.91 423.89,-543"/>
</g>
<!-- 11 -->
<g id="node12" class="node">
<title>11</title>
<path fill="#e58139" stroke="black" d="M601.5,-536.5C601.5,-536.5 494.5,-536.5 494.5,-536.5 488.5,-536.5 482.5,-530.5 482.5,-524.5 482.5,-524.5 482.5,-480.5 482.5,-480.5 482.5,-474.5 488.5,-468.5 494.5,-468.5 494.5,-468.5 601.5,-468.5 601.5,-468.5 607.5,-468.5 613.5,-474.5 613.5,-480.5 613.5,-480.5 613.5,-524.5 613.5,-524.5 613.5,-530.5 607.5,-536.5 601.5,-536.5"/>
<text text-anchor="start" x="513" y="-521.3" font-family="Helvetica,sans-Serif" font-size="14.00">gini = 0.0</text>
<text text-anchor="start" x="495" y="-506.3" font-family="Helvetica,sans-Serif" font-size="14.00">samples = 347</text>
<text text-anchor="start" x="490.5" y="-491.3" font-family="Helvetica,sans-Serif" font-size="14.00">value = [347, 0]</text>
<text text-anchor="start" x="499" y="-476.3" font-family="Helvetica,sans-Serif" font-size="14.00">class = edible</text>
</g>
<!-- 9&#45;&gt;11 -->
<g id="edge11" class="edge">
<title>9&#45;&gt;11</title>
<path fill="none" stroke="black" d="M498.37,-579.91C505.68,-568.65 513.63,-556.42 520.97,-545.11"/>
<polygon fill="black" stroke="black" points="523.94,-546.96 526.46,-536.67 518.07,-543.15 523.94,-546.96"/>
</g>
<!-- 13 -->
<g id="node14" class="node">
<title>13</title>
<path fill="#e5823b" stroke="black" d="M815,-663C815,-663 595,-663 595,-663 589,-663 583,-657 583,-651 583,-651 583,-592 583,-592 583,-586 589,-580 595,-580 595,-580 815,-580 815,-580 821,-580 827,-586 827,-592 827,-592 827,-651 827,-651 827,-657 821,-663 815,-663"/>
<text text-anchor="start" x="591" y="-647.8" font-family="Helvetica,sans-Serif" font-size="14.00">stalk&#45;surface&#45;below&#45;ring_y ≤ 0.5</text>
<text text-anchor="start" x="661" y="-632.8" font-family="Helvetica,sans-Serif" font-size="14.00">gini = 0.021</text>
<text text-anchor="start" x="647.5" y="-617.8" font-family="Helvetica,sans-Serif" font-size="14.00">samples = 2447</text>
<text text-anchor="start" x="638.5" y="-602.8" font-family="Helvetica,sans-Serif" font-size="14.00">value = [2421, 26]</text>
<text text-anchor="start" x="656" y="-587.8" font-family="Helvetica,sans-Serif" font-size="14.00">class = edible</text>
</g>
<!-- 12&#45;&gt;13 -->
<g id="edge13" class="edge">
<title>12&#45;&gt;13</title>
<path fill="none" stroke="black" d="M705,-698.91C705,-690.65 705,-681.86 705,-673.3"/>
<polygon fill="black" stroke="black" points="708.5,-673.02 705,-663.02 701.5,-673.02 708.5,-673.02"/>
</g>
<!-- 26 -->
<g id="node27" class="node">
<title>26</title>
<path fill="#399de5" stroke="black" d="M976.5,-655.5C976.5,-655.5 857.5,-655.5 857.5,-655.5 851.5,-655.5 845.5,-649.5 845.5,-643.5 845.5,-643.5 845.5,-599.5 845.5,-599.5 845.5,-593.5 851.5,-587.5 857.5,-587.5 857.5,-587.5 976.5,-587.5 976.5,-587.5 982.5,-587.5 988.5,-593.5 988.5,-599.5 988.5,-599.5 988.5,-643.5 988.5,-643.5 988.5,-649.5 982.5,-655.5 976.5,-655.5"/>
<text text-anchor="start" x="882" y="-640.3" font-family="Helvetica,sans-Serif" font-size="14.00">gini = 0.0</text>
<text text-anchor="start" x="868.5" y="-625.3" font-family="Helvetica,sans-Serif" font-size="14.00">samples = 49</text>
<text text-anchor="start" x="864" y="-610.3" font-family="Helvetica,sans-Serif" font-size="14.00">value = [0, 49]</text>
<text text-anchor="start" x="853.5" y="-595.3" font-family="Helvetica,sans-Serif" font-size="14.00">class = poisonous</text>
</g>
<!-- 12&#45;&gt;26 -->
<g id="edge26" class="edge">
<title>12&#45;&gt;26</title>
<path fill="none" stroke="black" d="M778.55,-698.91C801.05,-686.49 825.7,-672.89 847.88,-660.64"/>
<polygon fill="black" stroke="black" points="849.84,-663.56 856.9,-655.67 846.46,-657.43 849.84,-663.56"/>
</g>
<!-- 14 -->
<g id="node15" class="node">
<title>14</title>
<path fill="#e58139" stroke="black" d="M766,-544C766,-544 644,-544 644,-544 638,-544 632,-538 632,-532 632,-532 632,-473 632,-473 632,-467 638,-461 644,-461 644,-461 766,-461 766,-461 772,-461 778,-467 778,-473 778,-473 778,-532 778,-532 778,-538 772,-544 766,-544"/>
<text text-anchor="start" x="640" y="-528.8" font-family="Helvetica,sans-Serif" font-size="14.00">cap&#45;shape_c ≤ 0.5</text>
<text text-anchor="start" x="661" y="-513.8" font-family="Helvetica,sans-Serif" font-size="14.00">gini = 0.002</text>
<text text-anchor="start" x="647.5" y="-498.8" font-family="Helvetica,sans-Serif" font-size="14.00">samples = 2412</text>
<text text-anchor="start" x="643" y="-483.8" font-family="Helvetica,sans-Serif" font-size="14.00">value = [2409, 3]</text>
<text text-anchor="start" x="656" y="-468.8" font-family="Helvetica,sans-Serif" font-size="14.00">class = edible</text>
</g>
<!-- 13&#45;&gt;14 -->
<g id="edge14" class="edge">
<title>13&#45;&gt;14</title>
<path fill="none" stroke="black" d="M705,-579.91C705,-571.65 705,-562.86 705,-554.3"/>
<polygon fill="black" stroke="black" points="708.5,-554.02 705,-544.02 701.5,-554.02 708.5,-554.02"/>
</g>
<!-- 23 -->
<g id="node24" class="node">
<title>23</title>
<path fill="#a0d0f3" stroke="black" d="M927.5,-544C927.5,-544 808.5,-544 808.5,-544 802.5,-544 796.5,-538 796.5,-532 796.5,-532 796.5,-473 796.5,-473 796.5,-467 802.5,-461 808.5,-461 808.5,-461 927.5,-461 927.5,-461 933.5,-461 939.5,-467 939.5,-473 939.5,-473 939.5,-532 939.5,-532 939.5,-538 933.5,-544 927.5,-544"/>
<text text-anchor="start" x="812" y="-528.8" font-family="Helvetica,sans-Serif" font-size="14.00">gill&#45;size_b ≤ 0.5</text>
<text text-anchor="start" x="824" y="-513.8" font-family="Helvetica,sans-Serif" font-size="14.00">gini = 0.451</text>
<text text-anchor="start" x="819.5" y="-498.8" font-family="Helvetica,sans-Serif" font-size="14.00">samples = 35</text>
<text text-anchor="start" x="810.5" y="-483.8" font-family="Helvetica,sans-Serif" font-size="14.00">value = [12, 23]</text>
<text text-anchor="start" x="804.5" y="-468.8" font-family="Helvetica,sans-Serif" font-size="14.00">class = poisonous</text>
</g>
<!-- 13&#45;&gt;23 -->
<g id="edge23" class="edge">
<title>13&#45;&gt;23</title>
<path fill="none" stroke="black" d="M761.55,-579.91C774.95,-570.29 789.35,-559.95 803.09,-550.09"/>
<polygon fill="black" stroke="black" points="805.47,-552.7 811.55,-544.02 801.38,-547.01 805.47,-552.7"/>
</g>
<!-- 15 -->
<g id="node16" class="node">
<title>15</title>
<path fill="#e58139" stroke="black" d="M603,-425C603,-425 469,-425 469,-425 463,-425 457,-419 457,-413 457,-413 457,-354 457,-354 457,-348 463,-342 469,-342 469,-342 603,-342 603,-342 609,-342 615,-348 615,-354 615,-354 615,-413 615,-413 615,-419 609,-425 603,-425"/>
<text text-anchor="start" x="465" y="-409.8" font-family="Helvetica,sans-Serif" font-size="14.00">cap&#45;surface_g ≤ 0.5</text>
<text text-anchor="start" x="492" y="-394.8" font-family="Helvetica,sans-Serif" font-size="14.00">gini = 0.002</text>
<text text-anchor="start" x="478.5" y="-379.8" font-family="Helvetica,sans-Serif" font-size="14.00">samples = 2411</text>
<text text-anchor="start" x="474" y="-364.8" font-family="Helvetica,sans-Serif" font-size="14.00">value = [2409, 2]</text>
<text text-anchor="start" x="487" y="-349.8" font-family="Helvetica,sans-Serif" font-size="14.00">class = edible</text>
</g>
<!-- 14&#45;&gt;15 -->
<g id="edge15" class="edge">
<title>14&#45;&gt;15</title>
<path fill="none" stroke="black" d="M646.37,-460.91C632.34,-451.2 617.26,-440.76 602.89,-430.81"/>
<polygon fill="black" stroke="black" points="604.74,-427.84 594.53,-425.02 600.76,-433.59 604.74,-427.84"/>
</g>
<!-- 22 -->
<g id="node23" class="node">
<title>22</title>
<path fill="#399de5" stroke="black" d="M764.5,-417.5C764.5,-417.5 645.5,-417.5 645.5,-417.5 639.5,-417.5 633.5,-411.5 633.5,-405.5 633.5,-405.5 633.5,-361.5 633.5,-361.5 633.5,-355.5 639.5,-349.5 645.5,-349.5 645.5,-349.5 764.5,-349.5 764.5,-349.5 770.5,-349.5 776.5,-355.5 776.5,-361.5 776.5,-361.5 776.5,-405.5 776.5,-405.5 776.5,-411.5 770.5,-417.5 764.5,-417.5"/>
<text text-anchor="start" x="670" y="-402.3" font-family="Helvetica,sans-Serif" font-size="14.00">gini = 0.0</text>
<text text-anchor="start" x="661" y="-387.3" font-family="Helvetica,sans-Serif" font-size="14.00">samples = 1</text>
<text text-anchor="start" x="656.5" y="-372.3" font-family="Helvetica,sans-Serif" font-size="14.00">value = [0, 1]</text>
<text text-anchor="start" x="641.5" y="-357.3" font-family="Helvetica,sans-Serif" font-size="14.00">class = poisonous</text>
</g>
<!-- 14&#45;&gt;22 -->
<g id="edge22" class="edge">
<title>14&#45;&gt;22</title>
<path fill="none" stroke="black" d="M705,-460.91C705,-450.2 705,-438.62 705,-427.78"/>
<polygon fill="black" stroke="black" points="708.5,-427.67 705,-417.67 701.5,-427.67 708.5,-427.67"/>
</g>
<!-- 16 -->
<g id="node17" class="node">
<title>16</title>
<path fill="#e58139" stroke="black" d="M514,-306C514,-306 398,-306 398,-306 392,-306 386,-300 386,-294 386,-294 386,-235 386,-235 386,-229 392,-223 398,-223 398,-223 514,-223 514,-223 520,-223 526,-229 526,-235 526,-235 526,-294 526,-294 526,-300 520,-306 514,-306"/>
<text text-anchor="start" x="400" y="-290.8" font-family="Helvetica,sans-Serif" font-size="14.00">gill&#45;size_b ≤ 0.5</text>
<text text-anchor="start" x="412" y="-275.8" font-family="Helvetica,sans-Serif" font-size="14.00">gini = 0.001</text>
<text text-anchor="start" x="398.5" y="-260.8" font-family="Helvetica,sans-Serif" font-size="14.00">samples = 2410</text>
<text text-anchor="start" x="394" y="-245.8" font-family="Helvetica,sans-Serif" font-size="14.00">value = [2409, 1]</text>
<text text-anchor="start" x="407" y="-230.8" font-family="Helvetica,sans-Serif" font-size="14.00">class = edible</text>
</g>
<!-- 15&#45;&gt;16 -->
<g id="edge16" class="edge">
<title>15&#45;&gt;16</title>
<path fill="none" stroke="black" d="M508.24,-341.91C502.16,-333.01 495.66,-323.51 489.39,-314.33"/>
<polygon fill="black" stroke="black" points="492.24,-312.3 483.71,-306.02 486.46,-316.25 492.24,-312.3"/>
</g>
<!-- 21 -->
<g id="node22" class="node">
<title>21</title>
<path fill="#399de5" stroke="black" d="M675.5,-298.5C675.5,-298.5 556.5,-298.5 556.5,-298.5 550.5,-298.5 544.5,-292.5 544.5,-286.5 544.5,-286.5 544.5,-242.5 544.5,-242.5 544.5,-236.5 550.5,-230.5 556.5,-230.5 556.5,-230.5 675.5,-230.5 675.5,-230.5 681.5,-230.5 687.5,-236.5 687.5,-242.5 687.5,-242.5 687.5,-286.5 687.5,-286.5 687.5,-292.5 681.5,-298.5 675.5,-298.5"/>
<text text-anchor="start" x="581" y="-283.3" font-family="Helvetica,sans-Serif" font-size="14.00">gini = 0.0</text>
<text text-anchor="start" x="572" y="-268.3" font-family="Helvetica,sans-Serif" font-size="14.00">samples = 1</text>
<text text-anchor="start" x="567.5" y="-253.3" font-family="Helvetica,sans-Serif" font-size="14.00">value = [0, 1]</text>
<text text-anchor="start" x="552.5" y="-238.3" font-family="Helvetica,sans-Serif" font-size="14.00">class = poisonous</text>
</g>
<!-- 15&#45;&gt;21 -->
<g id="edge21" class="edge">
<title>15&#45;&gt;21</title>
<path fill="none" stroke="black" d="M563.76,-341.91C571.45,-330.65 579.82,-318.42 587.55,-307.11"/>
<polygon fill="black" stroke="black" points="590.57,-308.9 593.32,-298.67 584.79,-304.95 590.57,-308.9"/>
</g>
<!-- 17 -->
<g id="node18" class="node">
<title>17</title>
<path fill="#e5823a" stroke="black" d="M432.5,-187C432.5,-187 325.5,-187 325.5,-187 319.5,-187 313.5,-181 313.5,-175 313.5,-175 313.5,-116 313.5,-116 313.5,-110 319.5,-104 325.5,-104 325.5,-104 432.5,-104 432.5,-104 438.5,-104 444.5,-110 444.5,-116 444.5,-116 444.5,-175 444.5,-175 444.5,-181 438.5,-187 432.5,-187"/>
<text text-anchor="start" x="321.5" y="-171.8" font-family="Helvetica,sans-Serif" font-size="14.00">bruises?_t ≤ 0.5</text>
<text text-anchor="start" x="335" y="-156.8" font-family="Helvetica,sans-Serif" font-size="14.00">gini = 0.014</text>
<text text-anchor="start" x="326" y="-141.8" font-family="Helvetica,sans-Serif" font-size="14.00">samples = 143</text>
<text text-anchor="start" x="321.5" y="-126.8" font-family="Helvetica,sans-Serif" font-size="14.00">value = [142, 1]</text>
<text text-anchor="start" x="330" y="-111.8" font-family="Helvetica,sans-Serif" font-size="14.00">class = edible</text>
</g>
<!-- 16&#45;&gt;17 -->
<g id="edge17" class="edge">
<title>16&#45;&gt;17</title>
<path fill="none" stroke="black" d="M429.29,-222.91C423.49,-214.1 417.3,-204.7 411.32,-195.61"/>
<polygon fill="black" stroke="black" points="414.09,-193.45 405.67,-187.02 408.24,-197.3 414.09,-193.45"/>
</g>
<!-- 20 -->
<g id="node21" class="node">
<title>20</title>
<path fill="#e58139" stroke="black" d="M591,-179.5C591,-179.5 475,-179.5 475,-179.5 469,-179.5 463,-173.5 463,-167.5 463,-167.5 463,-123.5 463,-123.5 463,-117.5 469,-111.5 475,-111.5 475,-111.5 591,-111.5 591,-111.5 597,-111.5 603,-117.5 603,-123.5 603,-123.5 603,-167.5 603,-167.5 603,-173.5 597,-179.5 591,-179.5"/>
<text text-anchor="start" x="498" y="-164.3" font-family="Helvetica,sans-Serif" font-size="14.00">gini = 0.0</text>
<text text-anchor="start" x="475.5" y="-149.3" font-family="Helvetica,sans-Serif" font-size="14.00">samples = 2267</text>
<text text-anchor="start" x="471" y="-134.3" font-family="Helvetica,sans-Serif" font-size="14.00">value = [2267, 0]</text>
<text text-anchor="start" x="484" y="-119.3" font-family="Helvetica,sans-Serif" font-size="14.00">class = edible</text>
</g>
<!-- 16&#45;&gt;20 -->
<g id="edge20" class="edge">
<title>16&#45;&gt;20</title>
<path fill="none" stroke="black" d="M482.71,-222.91C490.12,-211.65 498.17,-199.42 505.62,-188.11"/>
<polygon fill="black" stroke="black" points="508.6,-189.94 511.17,-179.67 502.75,-186.1 508.6,-189.94"/>
</g>
<!-- 18 -->
<g id="node19" class="node">
<title>18</title>
<path fill="#e58139" stroke="black" d="M355.5,-68C355.5,-68 248.5,-68 248.5,-68 242.5,-68 236.5,-62 236.5,-56 236.5,-56 236.5,-12 236.5,-12 236.5,-6 242.5,0 248.5,0 248.5,0 355.5,0 355.5,0 361.5,0 367.5,-6 367.5,-12 367.5,-12 367.5,-56 367.5,-56 367.5,-62 361.5,-68 355.5,-68"/>
<text text-anchor="start" x="267" y="-52.8" font-family="Helvetica,sans-Serif" font-size="14.00">gini = 0.0</text>
<text text-anchor="start" x="249" y="-37.8" font-family="Helvetica,sans-Serif" font-size="14.00">samples = 142</text>
<text text-anchor="start" x="244.5" y="-22.8" font-family="Helvetica,sans-Serif" font-size="14.00">value = [142, 0]</text>
<text text-anchor="start" x="253" y="-7.8" font-family="Helvetica,sans-Serif" font-size="14.00">class = edible</text>
</g>
<!-- 17&#45;&gt;18 -->
<g id="edge18" class="edge">
<title>17&#45;&gt;18</title>
<path fill="none" stroke="black" d="M350.33,-103.73C344.11,-94.88 337.52,-85.51 331.27,-76.63"/>
<polygon fill="black" stroke="black" points="334.03,-74.47 325.42,-68.3 328.31,-78.49 334.03,-74.47"/>
</g>
<!-- 19 -->
<g id="node20" class="node">
<title>19</title>
<path fill="#399de5" stroke="black" d="M516.5,-68C516.5,-68 397.5,-68 397.5,-68 391.5,-68 385.5,-62 385.5,-56 385.5,-56 385.5,-12 385.5,-12 385.5,-6 391.5,0 397.5,0 397.5,0 516.5,0 516.5,0 522.5,0 528.5,-6 528.5,-12 528.5,-12 528.5,-56 528.5,-56 528.5,-62 522.5,-68 516.5,-68"/>
<text text-anchor="start" x="422" y="-52.8" font-family="Helvetica,sans-Serif" font-size="14.00">gini = 0.0</text>
<text text-anchor="start" x="413" y="-37.8" font-family="Helvetica,sans-Serif" font-size="14.00">samples = 1</text>
<text text-anchor="start" x="408.5" y="-22.8" font-family="Helvetica,sans-Serif" font-size="14.00">value = [0, 1]</text>
<text text-anchor="start" x="393.5" y="-7.8" font-family="Helvetica,sans-Serif" font-size="14.00">class = poisonous</text>
</g>
<!-- 17&#45;&gt;19 -->
<g id="edge19" class="edge">
<title>17&#45;&gt;19</title>
<path fill="none" stroke="black" d="M408.04,-103.73C414.35,-94.88 421.02,-85.51 427.35,-76.63"/>
<polygon fill="black" stroke="black" points="430.33,-78.48 433.28,-68.3 424.63,-74.41 430.33,-78.48"/>
</g>
<!-- 24 -->
<g id="node25" class="node">
<title>24</title>
<path fill="#399de5" stroke="black" d="M926.5,-417.5C926.5,-417.5 807.5,-417.5 807.5,-417.5 801.5,-417.5 795.5,-411.5 795.5,-405.5 795.5,-405.5 795.5,-361.5 795.5,-361.5 795.5,-355.5 801.5,-349.5 807.5,-349.5 807.5,-349.5 926.5,-349.5 926.5,-349.5 932.5,-349.5 938.5,-355.5 938.5,-361.5 938.5,-361.5 938.5,-405.5 938.5,-405.5 938.5,-411.5 932.5,-417.5 926.5,-417.5"/>
<text text-anchor="start" x="832" y="-402.3" font-family="Helvetica,sans-Serif" font-size="14.00">gini = 0.0</text>
<text text-anchor="start" x="818.5" y="-387.3" font-family="Helvetica,sans-Serif" font-size="14.00">samples = 23</text>
<text text-anchor="start" x="814" y="-372.3" font-family="Helvetica,sans-Serif" font-size="14.00">value = [0, 23]</text>
<text text-anchor="start" x="803.5" y="-357.3" font-family="Helvetica,sans-Serif" font-size="14.00">class = poisonous</text>
</g>
<!-- 23&#45;&gt;24 -->
<g id="edge24" class="edge">
<title>23&#45;&gt;24</title>
<path fill="none" stroke="black" d="M867.65,-460.91C867.56,-450.2 867.46,-438.62 867.37,-427.78"/>
<polygon fill="black" stroke="black" points="870.87,-427.64 867.28,-417.67 863.87,-427.7 870.87,-427.64"/>
</g>
<!-- 25 -->
<g id="node26" class="node">
<title>25</title>
<path fill="#e58139" stroke="black" d="M1067,-417.5C1067,-417.5 969,-417.5 969,-417.5 963,-417.5 957,-411.5 957,-405.5 957,-405.5 957,-361.5 957,-361.5 957,-355.5 963,-349.5 969,-349.5 969,-349.5 1067,-349.5 1067,-349.5 1073,-349.5 1079,-355.5 1079,-361.5 1079,-361.5 1079,-405.5 1079,-405.5 1079,-411.5 1073,-417.5 1067,-417.5"/>
<text text-anchor="start" x="983" y="-402.3" font-family="Helvetica,sans-Serif" font-size="14.00">gini = 0.0</text>
<text text-anchor="start" x="969.5" y="-387.3" font-family="Helvetica,sans-Serif" font-size="14.00">samples = 12</text>
<text text-anchor="start" x="965" y="-372.3" font-family="Helvetica,sans-Serif" font-size="14.00">value = [12, 0]</text>
<text text-anchor="start" x="969" y="-357.3" font-family="Helvetica,sans-Serif" font-size="14.00">class = edible</text>
</g>
<!-- 23&#45;&gt;25 -->
<g id="edge25" class="edge">
<title>23&#45;&gt;25</title>
<path fill="none" stroke="black" d="M920.04,-460.91C935.32,-448.99 952.01,-435.98 967.21,-424.12"/>
<polygon fill="black" stroke="black" points="969.75,-426.58 975.48,-417.67 965.44,-421.06 969.75,-426.58"/>
</g>
</g>
</svg>
